<?xml version="1.0" encoding="utf-8"?>
<svg version="1.1" id="Layer_1" xmlns="http://www.w3.org/2000/svg" xmlns:xlink="http://www.w3.org/1999/xlink" x="0px" y="0px"
	 viewBox="0 0 400 254.8" xml:space="preserve">
<path fill-rule="evenodd" clip-rule="evenodd" fill="#F25587" d="M148.7,52.6c-1.5-8.1-4.9-16.2-10.3-24.4
	c-26.7,3.5-50,16.7-69.7,39.6c-19.8,22.9-27.6,45.7-23.5,68.3c1.5,8.4,5.5,15.6,11.8,21.5c6.4,5.9,13.5,8.8,21.3,8.8
	c20.7,0,38.8-12.5,54.2-37.6C148,103.7,153.4,78.3,148.7,52.6z M396.7,36.7c-0.7-3.8-5.2-7-13.4-9.7c-8.3-2.7-17.9-4.1-28.8-4.1
	c-25.9,0-48.9,4.6-68.9,13.7l24.9,5.5c20.8,4.7,39.6,7.1,56.4,7.1c8.6,0,15.8-1.3,21.8-3.8C394.6,42.8,397.3,40,396.7,36.7z
	 M399.9,36.4c1.1,5.9-3.9,10.9-14.7,15.1c-10.9,4.1-24.5,6.2-40.9,6.2c-21.4,0-48.2-3.3-80.4-10c-13.8,7.2-25.6,18.2-35.6,33
	c-10,14.8-19.9,36-29.7,63.7c7.6,1.2,13.9,2.2,18.9,2.9c30.5,1.4,20.5,4.5,11.4,4.5h-3.6c-0.3,0.5-17.6-2.4-24.3-3.4l-3.5-0.7
	l-4.9,13.4c-6.9,18.5-12.8,31.8-17.7,39.7c-4.9,7.9-12.1,15.8-21.5,23.5c-25.1,20.5-52.9,30.7-83.6,30.7c-18.1,0-33.6-3.8-46.5-11.5
	c-12.9-7.7-20.5-17.5-22.6-29.5c-1.1-6-0.3-11.2,2.5-15.4c2.7-4.3,6.5-6.4,11.4-6.4c7.8,0,12.5,4,13.9,12.1c0.7,3.7,0.1,6.9-1.8,9.7
	c-1.9,2.7-4.5,4.1-7.9,4.1c-5.7,0-9.1-2.8-10.1-8.5c-0.2-2.9-0.8-4.3-1.8-4.3c-2.2,0-2.7,3.2-1.6,9.6c1.8,10.1,8.6,18.7,20.2,25.9
	c11.7,7.1,24.9,10.7,39.5,10.7c23.1,0,42.7-7,58.6-21s31.9-38.2,47.7-72.6c1.4-2.8,3.4-7,6.1-12.8h-3.4c-13.3,0-21.6,5.2-24.8,15.5
	c-0.3,1.7-0.8,2.5-1.5,2.5c-0.9,0-1.5-0.5-1.7-1.5c-0.9-4.8,1.7-9.3,7.6-13.6c5.9-4.3,12.6-6.4,20.1-6.4h5.2
	C201.1,93.6,228,62,259.3,46.6c-9.5-2-19.4-4.4-29.8-7C196.2,31.2,170.7,27,153.1,27c-3.6,0-6.9,0.1-10.1,0.3
	c6.9,10,11.5,21.2,13.8,33.8c4.8,26.2-0.9,51-17,74.2c-16.1,23.2-35.6,34.9-58.7,34.9c-9.8,0-18.2-3.1-25.4-9.3
	c-7.2-6.2-11.7-14.3-13.5-24.3c-4.1-22.8,3.4-45.8,22.5-69.1s42.5-38,70.2-44.1C123.5,9.8,108.5,3,89.8,3C59.3,3,34.3,18,15.1,48.1
	c-1.6,2-2.6,3.1-2.8,3.1c-0.7,0-1.3-0.4-1.6-1.3c-0.4-2.2,3.6-8,11.8-17.4C41.5,10.8,63.4,0,88,0c21.9,0,39.1,7.5,51.7,22.6
	c12-3.2,26.4-4.9,43.1-4.9c10.6,0,20.5,0.8,29.7,2.5c9.2,1.7,31.6,6.6,67,14.8c24.6-10.3,48.5-15.4,71.7-15.4
	c13.7,0,25,1.5,33.9,4.6C394.1,27.3,399,31.3,399.9,36.4z"/>
</svg>
