<svg xmlns="http://www.w3.org/2000/svg" viewBox="0 0 168 168">
  <path fill="#1ED760" d="M84 0a84 84 0 1 0 0 168A84 84 0 0 0 84 0zm38.6 121.2a5.2 5.2 0 0 1-7.2 1.8c-19.7-12-44.5-14.8-73.6-8.1a5.2 5.2 0 0 1-2.3-10.2c31.9-7.3 59.3-4.1 81.3 9.3a5.2 5.2 0 0 1 1.8 7.2zm10.3-22.9a6.6 6.6 0 0 1-9 2.2C102.3 86.3 76.6 82 48.6 89.7a6.6 6.6 0 1 1-3.5-12.7c31.2-8.6 59.9-4.7 83 14a6.6 6.6 0 0 1 2.2 9zm.9-23.8C113 60 83.1 57 54.9 65.1a7.9 7.9 0 0 1-4.4-15.2c31.8-9.2 65.8-5.7 90.9 10.3a7.9 7.9 0 0 1-7.6 13.3z"/>
</svg>
